HIERARCHY
ROOT pelvis
{
	OFFSET 0.000000 0.000000 0.000000
	CHANNELS 6 Xposition Yposition Zposition Zrotation Xrotation Yrotation
	JOINT lfemur
	{
		OFFSET 11.446000 0.000000 0.000000
		CHANNELS 3 Zrotation Xrotation Yrotation
		JOINT ltibia
		{
			OFFSET 0.000000 -42.030400 0.000000
			CHANNELS 3 Zrotation Xrotation Yrotation
			JOINT lfoot
			{
				OFFSET 0.000000 -39.930200 0.000000
				CHANNELS 3 Zrotation Xrotation Yrotation
				JOINT ltoes
				{
					OFFSET 0.000000 0.000000 11.775800
					CHANNELS 3 Zrotation Xrotation Yrotation
					End Site
					{
					    OFFSET 0.000000 0.000000 5.000000
					}
				}
			}
		}
	}
	JOINT rfemur
	{
		OFFSET -11.446000 0.000000 0.000000
		CHANNELS 3 Zrotation Xrotation Yrotation
		JOINT rtibia
		{
			OFFSET 0.000000 -42.030400 0.000000
			CHANNELS 3 Zrotation Xrotation Yrotation
			JOINT rfoot
			{
				OFFSET 0.000000 -39.930200 0.000000
				CHANNELS 3 Zrotation Xrotation Yrotation
				JOINT rtoes
				{
					OFFSET 0.000000 0.000000 11.775800
					CHANNELS 3 Zrotation Xrotation Yrotation
					End Site
					{
					    OFFSET 0.000000 0.000000 5.000000
					}
				}
			}
		}
	}
	JOINT thorax
	{
		OFFSET 0.000000 11.255600 -5.000000
		CHANNELS 3 Zrotation Xrotation Yrotation
		JOINT head
		{
			OFFSET 0.000000 43.799300 0.000000
			CHANNELS 3 Zrotation Xrotation Yrotation
			End Site
			{
			    OFFSET 0.000000 5.000000 0.000000
			}
		}
		JOINT lclavicle
		{
			OFFSET 0.000000 39.863000 0.000000
			CHANNELS 3 Zrotation Xrotation Yrotation
			JOINT lhumerus
			{
				OFFSET 17.380600 4.958300 0.000000
				CHANNELS 3 Zrotation Xrotation Yrotation
				JOINT lradius
				{
					OFFSET 0.000000 -27.561300 0.000000
					CHANNELS 3 Zrotation Xrotation Yrotation
					JOINT lhand
					{
						OFFSET 0.000000 -26.933000 0.000000
						CHANNELS 3 Zrotation Xrotation Yrotation
						End Site
						{
						    OFFSET 0.000000 -5.000000 0.000000
						}
					}
				}
			}
		}
		JOINT rclavicle
		{
			OFFSET 0.000000 39.863000 0.000000
			CHANNELS 3 Zrotation Xrotation Yrotation
			JOINT rhumerus
			{
				OFFSET -17.380600 4.958300 0.000000
				CHANNELS 3 Zrotation Xrotation Yrotation
				JOINT rradius
				{
					OFFSET 0.000000 -27.561300 0.000000
					CHANNELS 3 Zrotation Xrotation Yrotation
					JOINT rhand
					{
						OFFSET 0.000000 -26.933000 0.000000
						CHANNELS 3 Zrotation Xrotation Yrotation
						End Site
						{
						    OFFSET 0.000000 -5.000000 0.000000
						}
					}
				}
			}
		}
	}
}
MOTION
Frames: 21
Frame Time:	0.0333333
-50.502 86.7353 34.8495 -3.37837 -1.74873 49.8301 2.58115 -21.4198 -2.0986 0.83914 58.0572 -1.11771 0.866028 -4.78173 0.758771 -2.90229e-015 -5 3.1927e-015 1.58704 -6.30992 1.06814 -0.0749248 23.136 0.0379536 -1.02707 -4.12681 -6.12238 -2.78262e-016 -5 -3.1927e-015 3.93759 8.00025 0.534591 0.309394 -2.93941 -9.69432 8.82781e-032 7.95139e-016 -6.36111e-015 8.12338 -10.7342 -27.1285 17.7501 -25.8522 7.96471 -0.0432961 -0.820914 -5.85445 8.82781e-032 7.95139e-016 -6.36111e-015 -8.52538 -3.13006 13.6224 -16.4473 -24.3322 -7.17844 0.119658 -1.37545 9.83918 
-49.6877 86.6691 36.8908 -3.57668 -1.91749 56.8653 2.54263 -25.1378 0.49172 0.690229 54.6948 -0.930839 1.01432 -5.91923 0.834585 -5.56525e-016 -5 -6.38541e-015 2.802 -4.07896 -0.292682 -0.0772292 23.4267 -0.071351 -1.45423 -5.61115 -10.0986 -2.10715e-015 -5 3.1927e-015 4.23956 8.04835 -0.0990753 0.490666 -2.59548 -9.70028 1.59028e-015 -3.57812e-015 -9.54166e-015 8.57254 -10.4761 -26.3765 17.5524 -25.6254 7.84387 -0.0221655 -0.579194 -4.12691 1.59028e-015 -3.57812e-015 -9.54166e-015 -9.26892 -3.07624 14.5042 -17.1303 -25.1369 -7.58769 0.159753 -1.58912 11.3878 
-49.1243 86.3836 39.2203 -4.77766 -4.98205 62.1178 5.17471 -28.5113 1.50788 0.573582 51.5976 -0.807816 1.16922 -8.04875 1.33702 2.10715e-015 -5 -3.1927e-015 6.83578 0.0273462 0.979865 -0.0647281 20.1123 0.0645401 -1.6363 -4.83651 -11.0595 5.00945e-015 -5 -6.38541e-015 8.39949 9.00786 0.122386 -0.504684 -2.81638 -9.63793 -1.59028e-015 -1.19271e-015 -0 7.51093 -10.5952 -21.1324 16.4812 -24.3727 7.19861 -0.0939625 -1.21859 -8.70627 -1.59028e-015 -1.19271e-015 -0 -10.9567 -3.04284 17.929 -18.485 -26.6824 -8.4187 0.0507862 -0.89183 6.36237 
-47.7473 86.6525 40.6935 -4.52496 -3.75244 67.8293 2.15753 -30.2604 2.16401 0.380852 44.4939 -0.59812 1.3345 -7.29571 1.83498 3.97569e-016 -5 -0 5.61991 1.16394 0.8233 -0.0664538 20.179 0.107711 -1.59691 -5.03898 -8.79375 1.31201e-015 -5 -3.1927e-015 7.29498 8.22419 -0.697837 -0.908801 -2.51277 -8.60204 4.41391e-032 7.95139e-016 -3.18055e-015 8.25436 -9.06795 -20.0706 16.8943 -24.861 7.44545 -0.0444387 -0.832697 -5.93795 4.41391e-032 7.95139e-016 -3.18055e-015 -12.0142 -2.60077 20.1367 -20.114 -28.4541 -9.45031 0.031623 -0.698782 4.98243 
-46.5969 86.8209 41.9822 -5.848 -4.02796 71.2219 1.19808 -32.3964 2.19015 0.254079 37.9215 -0.469447 1.70278 -7.05156 4.76136 1.84872e-015 -5 -1.59635e-015 6.02389 2.06615 1.9133 -0.0610172 18.6093 0.191949 -1.34682 -3.59195 -4.32107 -1.0734e-015 -5 -3.1927e-015 8.30268 6.84789 0.665927 -1.62452 -1.87302 -8.36635 -7.95139e-016 -4.77083e-015 -0 8.02984 -7.70582 -18.6539 16.9875 -24.9704 7.50155 -0.0205109 -0.556226 -3.9633 -7.95139e-016 -4.77083e-015 -0 -13.1247 -2.20737 20.5029 -21.5324 -29.9216 -10.3754 0.0115755 -0.410501 2.92561 
-44.9557 86.7703 43.854 -5.59967 -5.66871 75.6104 1.2625 -32.8058 4.13413 0.175083 32.4263 -0.369237 1.95708 -6.05206 6.02077 -4.35344e-015 -5 4.78906e-015 7.87858 6.12413 1.77364 -0.0487695 14.9659 0.244682 -1.35982 -1.27759 -1.7594 -3.31969e-015 -5 -1.59635e-015 9.55543 7.158 -0.140286 -0.893111 -1.52924 -7.9385 5.46221e-031 -6.55989e-015 4.77083e-015 9.16042 -5.77813 -17.1056 17.273 -25.3028 7.67391 -0.00927461 -0.359834 -2.56332 5.46221e-031 -6.55989e-015 4.77083e-015 -13.2279 -2.36196 20.6184 -22.2248 -30.6132 -10.8354 0.00310778 -0.182872 1.30408 
-43.296 86.7853 45.4018 -5.46588 -6.71118 78.4402 0.853923 -33.2214 2.96093 0.135623 28.3288 -0.334139 2.30819 -5.97365 8.45157 1.34297e-015 -5 6.28564e-015 9.38644 9.94113 2.32526 -0.0326187 10.4878 0.21831 -1.41947 0.535772 -0.847635 -4.25396e-015 -5 -3.1927e-015 10.2793 7.51542 -0.0308639 -0.792269 -1.61518 -7.48245 0 1.19271e-015 -0 10.4485 -3.87316 -17.5649 17.6943 -25.7881 7.93052 -0.00119629 0.0123339 0.0860839 0 1.19271e-015 -0 -13.0112 -2.80783 20.1413 -22.6615 -31.0413 -11.1282 2.53175e-005 0.0185917 -0.129039 
-41.6735 86.3532 46.0783 -5.2436 -4.88906 81.0772 -3.03473 -32.6515 0.939037 0.0934636 23.6099 -0.29113 2.28584 -3.43672 10.6656 -0 -5 -0 8.36106 12.0834 0.342791 -0.030724 8.66347 0.164184 -2.70026 0.38293 -0.418848 -5.30753e-015 -5 -1.59635e-015 7.73349 7.56047 0.618384 -0.237582 -2.18471 -8.67639 0 4.07509e-015 -0 11.2623 -2.83676 -16.9729 17.223 -25.2441 7.64371 -0.00128893 -0.0188066 -0.136147 0 4.07509e-015 -0 -13.3028 -3.7628 19.8171 -22.34 -30.7269 -10.9123 0.0111507 0.292736 -2.08043 
-40.4069 85.9504 48.455 -7.39328 -13.0763 79.2099 7.33755 -37.7042 0.624396 0.15738 31.3708 -0.3478 2.83132 -7.07348 11.9321 -2.69846e-015 -5 -3.59179e-015 17.4357 16.2577 2.44334 1.9465e-006 0.0450387 0.0288462 -1.31348 6.08167 -1.0259 6.95656e-017 -5 7.98176e-016 18.4664 7.75886 3.16756 -3.00075 -2.23652 -8.09384 7.95139e-016 1.98785e-015 -2.38542e-015 9.16949 -1.67417 -17.2919 16.4372 -24.3196 7.17252 -0.0061205 0.280479 1.99421 7.95139e-016 1.98785e-015 -2.38542e-015 -15.8178 -4.68089 19.4905 -21.8107 -30.2015 -10.5595 0.00588301 0.204255 -1.44986 
-38.1457 85.6167 48.5075 -6.38843 -7.71881 81.2559 0.298137 -34.8672 -0.285138 0.12853 28.1005 -0.328495 2.23463 -4.59545 8.009 -5.38615e-016 -5 2.94327e-015 12.6856 16.8803 1.14694 -0.00211057 2.20692 0.0872388 -1.64469 3.83551 -1.727 -8.64704e-016 -5 -7.98176e-016 10.8597 7.0246 4.36208 -1.00669 -1.81304 -9.41698 -7.95139e-016 -2.68359e-015 -0 10.1599 -0.458377 -9.19396 14.7053 -22.2015 6.16667 -0.0347531 -0.734028 -5.23169 -7.95139e-016 -2.68359e-015 -0 -13.2654 -4.67498 16.5715 -20.7392 -29.1098 -9.85503 0.00157925 -0.0818753 0.586329 
-35.897 85.2102 48.501 -6.12312 -4.05179 81.6154 -4.21994 -32.4254 -1.63922 0.108512 26.6905 -0.171295 4.57235 -3.20803 3.31555 -1.45115e-015 -5 1.59635e-015 9.179 17.1077 0.387454 -0.0256475 4.8202 0.16952 -3.84967 1.3352 -1.124 -1.00384e-015 -5 -2.39453e-015 6.51299 6.51165 5.27492 -0.988406 -1.71631 -8.93262 7.95139e-016 -2.60905e-015 3.97569e-016 10.2967 1.03977 -5.33278 13.4543 -20.6019 5.46993 -0.0668568 -1.02631 -7.3243 7.95139e-016 -2.60905e-015 3.97569e-016 -11.9776 -4.78969 16.118 -20.0824 -28.4213 -9.43 0.00339305 -0.187729 1.34001 
-33.3101 85.2432 48.8846 -6.7216 -3.20149 80.9369 -5.00969 -31.4943 -2.17034 0.112303 27.0551 -0.143472 4.69385 -1.92273 0.571794 -1.84872e-015 -5 1.59635e-015 8.01621 15.9183 0.10507 -0.0332413 8.93027 0.144857 -3.73663 0.7257 0.10741 -1.79897e-015 -5 -2.39453e-015 6.09654 5.12005 6.5008 -1.94177 -0.836996 -8.15712 -0 -2.36057e-015 -0 9.06094 2.83025 0.882439 12.1112 -18.8197 4.75156 -0.137135 -1.4738 -10.5476 -0 -2.36057e-015 -0 -11.6602 -4.05629 16.3654 -19.4798 -27.7758 -9.04468 0.0106948 -0.391103 2.78706 
-30.3974 85.4631 49.2042 -6.56784 -1.9455 80.7241 -6.25796 -29.4905 -2.06671 0.108837 25.6193 -0.238058 2.5028 1.06824 0.282103 -3.18055e-015 -5 -0 6.35681 15.6273 0.554266 -0.0451422 12.742 0.09187 -4.55903 1.59467 0.719458 6.95656e-017 -5 7.98176e-016 5.04968 4.57759 7.13244 -2.46621 -0.347414 -7.69151 -1.59028e-015 -8.94531e-016 3.97569e-016 7.72486 4.33293 7.33598 10.8879 -17.1387 4.12581 -0.265394 -2.04592 -14.7249 -1.59028e-015 -8.94531e-016 3.97569e-016 -11.042 -3.65793 16.1513 -18.6774 -26.8967 -8.53872 0.0272302 -0.64598 4.605 
-27.4468 85.6331 50.0342 -6.36938 -2.84343 80.6416 -4.97196 -27.8314 -0.590544 0.122363 26.9747 -0.245422 2.07548 1.37562 -0.170311 -8.94621e-016 -5 7.98176e-015 6.80759 12.3724 -0.737123 -0.0930633 22.5542 0.0261344 -5.18519 3.14736 2.49536 -9.3427e-016 -5 -1.59635e-015 6.45817 4.52727 7.30312 -3.587 -0.510649 -6.88735 -5.45704e-032 5.24295e-015 5.96354e-016 6.10666 5.4485 10.6885 9.8456 -15.6626 3.61516 -0.339002 -2.30821 -16.6643 -5.45704e-032 5.24295e-015 5.96354e-016 -11.0736 -3.09168 16.4072 -18.403 -26.5907 -8.36769 0.0501855 -0.885942 6.3206 
-24.5522 85.8258 50.5053 -6.02797 -2.63904 80.9898 -5.21911 -25.6347 -1.66242 0.120489 26.5949 -0.264129 1.56459 2.1594 -1.44064 -2.24628e-015 -5 1.59635e-015 5.42248 6.76943 -1.41723 -0.224327 35.6495 0.247506 -7.32709 7.09191 5.60011 -1.61447e-015 -5 -2.30855e-014 6.31577 4.85968 6.72135 -3.8177 -1.44061 -5.96632 -7.95139e-016 -6.33626e-015 7.95139e-016 4.81562 6.29235 9.38812 9.78979 -15.5821 3.58835 -0.334737 -2.29417 -16.5586 -7.95139e-016 -6.33626e-015 7.95139e-016 -10.3848 -3.08683 15.5967 -18.346 -26.5272 -8.33232 0.0796798 -1.12044 8.00305 
-21.6635 85.8702 50.5853 -5.32375 0.221748 81.4627 -8.67442 -22.6882 -1.44112 0.108763 25.0954 -0.256762 1.4365 2.88544 -1.61621 1.45115e-015 -5 -1.59635e-015 1.10664 0.352415 -1.97916 -0.470016 47.9053 0.780095 -7.90948 10.2387 9.74724 5.15849e-015 -5 -2.39453e-015 2.68806 5.12413 5.74996 -2.64083 -2.72153 -6.00992 1.24141e-031 8.94531e-015 -7.95139e-016 4.5512 6.49518 6.21627 10.1018 -16.029 3.73873 -0.251504 -1.99265 -14.3316 1.24141e-031 8.94531e-015 -7.95139e-016 -9.53073 -3.3815 16.6163 -18.5648 -26.7717 -8.46848 0.0698097 -1.04793 7.48208 
-18.7462 85.825 51.2312 -4.21465 0.39384 82.1415 -9.51285 -19.49 -2.50492 0.109778 25.1092 -0.21637 2.76561 1.63027 -0.662831 -2.10715e-015 -5 3.1927e-015 -0.165115 -4.72974 -2.28258 -0.816699 57.3501 0.661413 -2.93028 7.96394 6.59594 2.85012e-015 -5 -3.79134e-015 2.16545 6.42102 4.87859 -2.42756 -3.64685 -5.84597 3.97569e-016 4.29872e-015 -1.19271e-015 4.44004 5.60258 1.3074 10.3775 -16.4204 3.87305 -0.257139 -2.0148 -14.4932 3.97569e-016 4.29872e-015 -1.19271e-015 -9.01795 -4.01956 17.4262 -18.9119 -27.1564 -8.6858 0.0368838 -0.756221 5.39282 
-15.7542 85.8121 52.1056 -3.13918 0.0836374 82.8614 -9.12919 -16.6953 -2.72692 0.118141 26.2377 -0.191723 3.13888 -1.05227 -0.466112 1.70958e-015 -5 -3.1927e-015 -0.289867 -9.12212 -2.99502 -1.17756 63.405 1.05842 -1.72932 3.31152 2.12025 9.3427e-016 -5 1.59635e-015 2.00715 7.48119 3.79654 -1.96835 -3.29132 -6.0842 3.97569e-016 -7.70291e-016 -0 4.77256 4.19115 -2.47352 10.6525 -16.8084 4.00856 -0.304836 -2.19076 -15.7924 3.97569e-016 -7.70291e-016 -0 -7.80065 -4.3584 15.4094 -18.7895 -27.0218 -8.60903 0.0577345 -0.952057 6.79409 
-12.9025 85.5624 52.3263 -2.99114 2.09348 83.7307 -11.0745 -14.6531 -2.09149 0.114807 25.8834 -0.203424 2.83896 -2.64813 -1.32152 1.39131e-016 -5 1.59635e-015 -3.41253 -15.4888 -3.64925 -1.57209 67.9018 1.48095 -1.27268 -1.47666 -1.38087 1.39131e-016 -5 1.59635e-015 -0.436246 7.03971 2.83841 -1.13042 -1.93627 -6.69252 -3.97569e-016 -1.81391e-015 -3.97569e-016 5.59673 2.67688 -4.87079 11.0813 -17.4077 4.22271 -0.296607 -2.16134 -15.5751 -3.97569e-016 -1.81391e-015 -3.97569e-016 -7.02338 -4.02673 15.6818 -18.9634 -27.2137 -8.71822 0.0150339 -0.471077 3.3571 
-9.99254 85.1681 52.7032 -2.74297 3.04087 84.7921 -12.0668 -12.4457 -1.68678 0.115361 25.8737 -0.144785 3.42897 -4.76376 -1.47501 -2.90229e-015 -5 3.1927e-015 -5.12424 -21.1578 -3.60681 -1.67763 68.89 1.61785 -1.34453 -5.36026 -3.88772 -3.71726e-015 -5 -1.59635e-015 -1.60954 7.0476 2.3191 -0.519878 -1.32235 -7.63983 -3.97569e-016 3.29237e-015 -0 5.99332 1.05855 -8.96039 12.2415 -18.996 4.81977 -0.196863 -1.76423 -12.6599 -3.97569e-016 3.29237e-015 -0 -6.82363 -3.6666 14.5764 -18.9547 -27.2042 -8.7128 0.0274284 -0.649208 4.62757 
-7.01119 84.7459 53.2935 -2.48468 3.01879 85.6976 -12.3084 -10.6183 -2.79707 0.127968 27.2741 -0.0931484 3.87271 -7.38307 0.215582 -2.78262e-016 -5 -3.1927e-015 -5.22701 -25.7627 -2.13349 -1.37516 65.9974 1.39945 -1.42934 -7.43616 -2.49706 -6.64933e-015 -5 -1.59635e-015 -1.31047 7.3855 0.980459 -0.234773 -1.27279 -7.41048 -7.95139e-016 2.5345e-015 1.19271e-015 5.80748 -0.421909 -11.6247 13.8855 -21.1605 5.70712 -0.115727 -1.35301 -9.67554 -7.95139e-016 2.5345e-015 1.19271e-015 -7.15339 -3.64971 17.3043 -19.1016 -27.3652 -8.80537 0.00128586 0.0427177 -0.300813 
